<svg xmlns="http://www.w3.org/2000/svg" viewBox="0 0 180 180">
  <rect width="180" height="180" rx="40" fill="#1A2F4B"/>

  <!-- Optimization path -->
  <path d="M40 130 Q60 70 90 90 Q110 105 100 60 Q92 35 120 40 Q145 48 145 65"
        fill="none" stroke="#3B82C4" stroke-width="4" stroke-linecap="round" opacity="0.35"/>

  <!-- Chibi ant body -->
  <ellipse cx="90" cy="115" rx="20" ry="16" fill="#3B82C4"/>
  <ellipse cx="90" cy="95" rx="16" ry="14" fill="#4A94D0"/>

  <!-- Head -->
  <circle cx="90" cy="74" r="18" fill="#5AABDE"/>

  <!-- Eyes -->
  <circle cx="83" cy="71" r="6" fill="white"/>
  <circle cx="97" cy="71" r="6" fill="white"/>
  <circle cx="84.5" cy="70" r="3" fill="#1A2F4B"/>
  <circle cx="98.5" cy="70" r="3" fill="#1A2F4B"/>
  <circle cx="85.5" cy="68.5" r="1.2" fill="white"/>
  <circle cx="99.5" cy="68.5" r="1.2" fill="white"/>

  <!-- Smile -->
  <path d="M84 80 Q90 86 96 80" fill="none" stroke="#1A2F4B" stroke-width="2.5" stroke-linecap="round"/>

  <!-- Antennae -->
  <path d="M82 58 Q72 38 60 32" fill="none" stroke="#5AABDE" stroke-width="4" stroke-linecap="round"/>
  <path d="M98 58 Q108 38 120 32" fill="none" stroke="#5AABDE" stroke-width="4" stroke-linecap="round"/>
  <circle cx="60" cy="32" r="6" fill="#FF8C00"/>
  <circle cx="120" cy="32" r="6" fill="#FF8C00"/>

  <!-- Legs -->
  <line x1="74" y1="105" x2="56" y2="120" stroke="#3B82C4" stroke-width="4" stroke-linecap="round"/>
  <line x1="74" y1="115" x2="52" y2="134" stroke="#3B82C4" stroke-width="4" stroke-linecap="round"/>
  <line x1="106" y1="105" x2="124" y2="120" stroke="#3B82C4" stroke-width="4" stroke-linecap="round"/>
  <line x1="106" y1="115" x2="128" y2="134" stroke="#3B82C4" stroke-width="4" stroke-linecap="round"/>
</svg>
